<?xml version="1.0" encoding="UTF-8" standalone="no"?>
<svg width="106px" height="106px" viewBox="0 0 106 106" version="1.1" xmlns="http://www.w3.org/2000/svg" xmlns:xlink="http://www.w3.org/1999/xlink" xmlns:sketch="http://www.bohemiancoding.com/sketch/ns">
    <!-- Generator: Sketch 3.2.2 (9983) - http://www.bohemiancoding.com/sketch -->
    <title>Group</title>
    <desc>Created with Sketch.</desc>
    <defs></defs>
    <g id="Page-1" stroke="none" stroke-width="1" fill="none" fill-rule="evenodd" sketch:type="MSPage">
        <g id="Group" sketch:type="MSLayerGroup" transform="translate(3.000000, 3.000000)">
            <path d="M61.819309,55.313638 C76.7629241,27.09231 65.7803539,12 50.000184,12 C33.909004,12 23.1966769,27.6715966 38.1810591,55.313638 C43.2376494,64.6417229 40.0194037,70.0504331 29.3633388,72.5124474 C18.4776134,75.027124 18.187026,79.4847365 18.187026,89.9161453 C18.187026,89.9161453 23.4425179,101.994729 50.0001854,101.994728 C76.5578528,101.994727 79.9016866,90.9285507 79.9016866,90.9285507 C79.9016866,80.4969572 80.0522298,75.0972328 69.1650648,72.5124474 C58.2749121,69.9962924 56.9099228,64.5851801 61.819309,55.313638 Z" id="user-icon" fill="#2ECC71" sketch:type="MSShapeGroup"></path>
            <circle id="Oval-1" stroke="#2ECC71" stroke-width="3" sketch:type="MSShapeGroup" cx="50" cy="50" r="50"></circle>
            <path d="M37.8817256,39.1779792 C42.0442454,43.2342244 48.4742806,43.4294423 48.4742806,43.4294423 C48.4742806,43.4294423 48.4742806,36.0693406 44.1491966,32.4520123 C39.8241126,28.834684 34.3140616,28.7092394 34.3140616,28.7092394 C34.3140616,28.7092394 34.0024261,35.3977234 37.8817256,39.1779792 Z" id="Oval-4" fill="#000000" sketch:type="MSShapeGroup"></path>
            <path d="M62.0987503,39.1779792 C57.9362304,43.2342244 51.5061953,43.4294423 51.5061953,43.4294423 C51.5061953,43.4294423 51.5061953,36.0693406 55.8312792,32.4520123 C60.1563632,28.834684 65.6664142,28.7092394 65.6664142,28.7092394 C65.6664142,28.7092394 65.9780497,35.3977234 62.0987503,39.1779792 Z" id="Oval-5" fill="#000000" sketch:type="MSShapeGroup"></path>
        </g>
    </g>
</svg>